<mxfile host="" modified="2020-07-15T14:25:45.117Z" agent="5.0 (Macintosh; Intel Mac OS X 10_14_0) AppleWebKit/537.36 (KHTML, like Gecko) Code/1.46.1 Chrome/78.0.3904.130 Electron/7.3.1 Safari/537.36" etag="3g7tP-ehmTjYLwi4msPJ" version="13.1.3">
    <diagram id="e1jyXzUk6MKMNf2lq4nU" name="MathJax">
        <mxGraphModel dx="1081" dy="570" grid="0" gridSize="10" guides="1" tooltips="1" connect="1" arrows="1" fold="1" page="1" pageScale="1" pageWidth="827" pageHeight="1169" math="1" shadow="0">
            <root>
                <mxCell id="n3UmtM9tL3a9svDdBCAt-0"/>
                <mxCell id="n3UmtM9tL3a9svDdBCAt-1" parent="n3UmtM9tL3a9svDdBCAt-0"/>
                <mxCell id="n3UmtM9tL3a9svDdBCAt-14" value="&lt;table cellpadding=&quot;4&quot; cellspacing=&quot;0&quot; border=&quot;1&quot; style=&quot;font-size: 1em ; width: 100% ; height: 100%&quot;&gt;&lt;tbody&gt;&lt;tr&gt;&lt;th style=&quot;text-align: center&quot;&gt;&lt;span style=&quot;font-weight: normal&quot;&gt;syntax&lt;/span&gt;&lt;/th&gt;&lt;th style=&quot;text-align: center&quot;&gt;&lt;span style=&quot;font-weight: normal&quot;&gt;symbols&lt;/span&gt;&lt;/th&gt;&lt;/tr&gt;&lt;tr&gt;&lt;td&gt;MathJax&lt;/td&gt;&lt;td&gt;&lt;h3&gt;latex delimiter&lt;/h3&gt;&lt;ol&gt;&lt;li&gt;block mode between&amp;nbsp;$$&lt;/li&gt;&lt;li&gt;inline mode between&amp;nbsp;\) \( or $&lt;/li&gt;&lt;/ol&gt;&lt;h3&gt;&lt;span style=&quot;font-size: 13px&quot;&gt;AsciiMath delimiter&lt;/span&gt;&lt;/h3&gt;&lt;div&gt;&lt;ol&gt;&lt;li&gt;&lt;span style=&quot;font-size: 13px&quot;&gt;between &lt;span&gt;`&lt;/span&gt;&lt;br&gt;&lt;/span&gt;&lt;/li&gt;&lt;/ol&gt;&lt;h3&gt;&lt;span style=&quot;font-size: 13px&quot;&gt;reference&lt;/span&gt;&lt;/h3&gt;&lt;/div&gt;&lt;div&gt;&lt;ol&gt;&lt;li&gt;&lt;a href=&quot;https://math.meta.stackexchange.com/questions/5020/mathjax-basic-tutorial-and-quick-reference&quot;&gt;mathjax-basic-tutorial-and-quick-reference&lt;/a&gt;&lt;/li&gt;&lt;/ol&gt;&lt;/div&gt;&lt;/td&gt;&lt;/tr&gt;&lt;tr&gt;&lt;td&gt;Greeks:&lt;br&gt;&lt;ol&gt;&lt;li&gt;A , \alpha&lt;/li&gt;&lt;li&gt;B, \beta&lt;/li&gt;&lt;li&gt;\Gamma, \gamma&lt;/li&gt;&lt;li&gt;\Delta, \delta&lt;/li&gt;&lt;li&gt;E, \epsilon&lt;/li&gt;&lt;li&gt;Z, \zeta&lt;/li&gt;&lt;li&gt;H, \eta&lt;/li&gt;&lt;li&gt;\Theta, \theta&lt;/li&gt;&lt;li&gt;\I, \iota&lt;/li&gt;&lt;li&gt;K, \kappa&lt;/li&gt;&lt;li&gt;\Lambda, \lambda&lt;/li&gt;&lt;li&gt;M, \mu&lt;/li&gt;&lt;li&gt;N, \nu&lt;/li&gt;&lt;li&gt;\Xi, \xi&lt;/li&gt;&lt;li&gt;0, \omicron&lt;/li&gt;&lt;li&gt;\Pi, \pi&lt;/li&gt;&lt;li&gt;R, \rho&lt;/li&gt;&lt;li&gt;\Sigma, \sigma&lt;/li&gt;&lt;li&gt;T, \tau&lt;/li&gt;&lt;li&gt;\Upsilon, \upsilon&lt;/li&gt;&lt;li&gt;\Phi, \phi&lt;/li&gt;&lt;li&gt;X, \chi&lt;/li&gt;&lt;li&gt;\Psi, \psi&lt;/li&gt;&lt;li&gt;\Omega, \omega&lt;/li&gt;&lt;/ol&gt;&lt;/td&gt;&lt;td&gt;&lt;br&gt;&lt;br&gt;&lt;ol&gt;&lt;li&gt;\(A\), \(\alpha\)&lt;/li&gt;&lt;li&gt;\(B\), \(\beta\)&lt;/li&gt;&lt;li&gt;\(\Gamma\), \(\gamma\)&lt;/li&gt;&lt;li&gt;\(\Delta\), \(\delta\)&lt;/li&gt;&lt;li&gt;\(E\), \(\epsilon\)&lt;/li&gt;&lt;li&gt;\(Z\), \(\zeta\)&lt;/li&gt;&lt;li&gt;\(H\), \(\eta\)&lt;/li&gt;&lt;li&gt;\(\Theta\), \(\theta\)&lt;/li&gt;&lt;li&gt;\(I\), \(\iota\)&lt;/li&gt;&lt;li&gt;\(K\), \(\kappa\)&lt;/li&gt;&lt;li&gt;\(\Lambda\), \(\lambda\)&lt;/li&gt;&lt;li&gt;\(M\), \(\mu\)&lt;/li&gt;&lt;li&gt;\(N\), \(\nu\)&lt;/li&gt;&lt;li&gt;\(\Xi\), \(\xi\)&lt;/li&gt;&lt;li&gt;\(O\), \(\omicron\)&lt;/li&gt;&lt;li&gt;\(\Pi\), \(\pi\)&lt;/li&gt;&lt;li&gt;\(R\), \(\rho\)&lt;/li&gt;&lt;li&gt;\(\Sigma\), \(\sigma\)&lt;/li&gt;&lt;li&gt;\(T\), \(\tau\)&lt;/li&gt;&lt;li&gt;\(\Upsilon\), \(\upsilon\)&lt;/li&gt;&lt;li&gt;\(\Phi\), \(\phi\)&lt;/li&gt;&lt;li&gt;\(X\), \(\chi\)&lt;/li&gt;&lt;li&gt;\(\Psi\), \(\psi\)&lt;/li&gt;&lt;li&gt;\(\Omega\), \(\omega\)&lt;/li&gt;&lt;/ol&gt;&lt;/td&gt;&lt;/tr&gt;&lt;tr&gt;&lt;td&gt;text:&lt;br&gt;&lt;ol&gt;&lt;li&gt;\text&lt;/li&gt;&lt;li&gt;\,, \;, \quad, \qquad for space widered&lt;/li&gt;&lt;li&gt;{} group elements&lt;/li&gt;&lt;li&gt;_ subscript&lt;/li&gt;&lt;li&gt;^ superscript&lt;/li&gt;&lt;li&gt;l, \ell&lt;/li&gt;&lt;li&gt;\ for escape, \backslash for \&lt;/li&gt;&lt;li&gt;\\ for new line, \\[2ex] for larger vertical space&lt;/li&gt;&lt;li&gt;\mathrm{d}x; dx&lt;/li&gt;&lt;/ol&gt;&lt;/td&gt;&lt;td&gt;&lt;br&gt;&lt;ol&gt;&lt;li&gt;\(\text{hello, world,&amp;nbsp; hello,,,,&amp;nbsp; &amp;nbsp; &amp;nbsp;world}\)&lt;/li&gt;&lt;li&gt;\(a\, a\; a\quad a \qquad a\)&lt;/li&gt;&lt;li&gt;\(a_1\)&lt;/li&gt;&lt;li&gt;\(a^3\)&lt;/li&gt;&lt;li&gt;\(l\), \(\ell\)&lt;/li&gt;&lt;li&gt;\(\backslash\)&lt;/li&gt;&lt;li&gt;\(\mathrm{d}x, dx\)&lt;/li&gt;&lt;/ol&gt;&lt;/td&gt;&lt;/tr&gt;&lt;tr&gt;&lt;td&gt;brackets&lt;br&gt;&lt;ol&gt;&lt;li&gt;(),&amp;nbsp; \left( \right)&lt;/li&gt;&lt;li&gt;[], \left[ \right]&lt;/li&gt;&lt;li&gt;\{, \}&lt;/li&gt;&lt;li&gt;\langle, \rangle&lt;/li&gt;&lt;li&gt;\lceil x \rceil&lt;/li&gt;&lt;li&gt;\lfloor x \rfloor&lt;/li&gt;&lt;li&gt;\lvert, \rvert&lt;/li&gt;&lt;li&gt;\lVert, \rVert&lt;/li&gt;&lt;/ol&gt;&lt;/td&gt;&lt;td&gt;&lt;br&gt;&lt;ol&gt;&lt;li&gt;\(()\), \(\left(\right)\)&lt;/li&gt;&lt;li&gt;\([]\), \(\left[ \right]\)&lt;/li&gt;&lt;li&gt;\(\{\), \(\}\)&lt;/li&gt;&lt;li&gt;\(\langle\), \(\rangle\)&lt;/li&gt;&lt;li&gt;\(\lceil x \rceil\)&lt;/li&gt;&lt;li&gt;\(\lfloor x \rfloor\)&lt;/li&gt;&lt;li&gt;\(\lvert x \rvert\)&lt;/li&gt;&lt;li&gt;\(\lVert x \rVert\)&lt;/li&gt;&lt;/ol&gt;&lt;/td&gt;&lt;/tr&gt;&lt;tr&gt;&lt;td&gt;relations:&lt;br&gt;&lt;br&gt;\lt, \gt, \le, \ge, \neq, =&lt;br&gt;&lt;br&gt;&lt;br&gt;&lt;/td&gt;&lt;td&gt;\(\lt\), \(\gt\), \(\le\), \(\ge\), \(\neq\), \(=\)&lt;/td&gt;&lt;/tr&gt;&lt;tr&gt;&lt;td&gt;arithmetics:&lt;ol&gt;&lt;li&gt;+, -, \times, \div&lt;/li&gt;&lt;li&gt;\pm, \mp, \cdot for centered dot&lt;/li&gt;&lt;li&gt;\frac, \over; \cfrac for continual frac&lt;/li&gt;&lt;/ol&gt;&lt;/td&gt;&lt;td&gt;&lt;div&gt;&lt;br&gt;&lt;/div&gt;&lt;ol&gt;&lt;li&gt;\(+\), \(-\), \(\times\), \(\div\)&lt;/li&gt;&lt;li&gt;\(\pm\), \(\mp\), \(\cdot\)&lt;/li&gt;&lt;li&gt;\(\frac ab\), \(a \over b\)&lt;/li&gt;&lt;/ol&gt;&lt;/td&gt;&lt;/tr&gt;&lt;tr&gt;&lt;td&gt;sets:&lt;br&gt;&lt;ol&gt;&lt;li&gt;\cup&lt;/li&gt;&lt;li&gt;\cap&lt;/li&gt;&lt;li&gt;\setminus&lt;/li&gt;&lt;li&gt;\subset&lt;/li&gt;&lt;li&gt;\subseteq&lt;/li&gt;&lt;li&gt;\subsetneq&lt;/li&gt;&lt;li&gt;\supset&lt;/li&gt;&lt;li&gt;\in&lt;/li&gt;&lt;li&gt;\notin&lt;/li&gt;&lt;li&gt;\emptyset, \varnothing&lt;/li&gt;&lt;/ol&gt;&lt;/td&gt;&lt;td&gt;&lt;br&gt;&lt;br&gt;&lt;ol&gt;&lt;li&gt;\(\cup\)&lt;/li&gt;&lt;li&gt;\(\cap\)&lt;/li&gt;&lt;li&gt;\(\setminus\)&lt;/li&gt;&lt;li&gt;\(\subset\)&lt;/li&gt;&lt;li&gt;\(\subseteq\)&lt;/li&gt;&lt;li&gt;\(\subsetneq\)&lt;/li&gt;&lt;li&gt;\(\supset\)&lt;/li&gt;&lt;li&gt;\(\in\)&lt;/li&gt;&lt;li&gt;\(\notin\)&lt;/li&gt;&lt;li&gt;\(\emptyset\), \(\varnothing\)&lt;/li&gt;&lt;/ol&gt;&lt;/td&gt;&lt;/tr&gt;&lt;tr&gt;&lt;td&gt;specials:&lt;br&gt;&lt;ol&gt;&lt;li&gt;\infty&lt;/li&gt;&lt;li&gt;\nabla&lt;/li&gt;&lt;li&gt;\partial; \prime&lt;/li&gt;&lt;li&gt;\approx&lt;/li&gt;&lt;li&gt;\sim&lt;/li&gt;&lt;li&gt;\simeq&lt;/li&gt;&lt;li&gt;\cong&lt;/li&gt;&lt;li&gt;\equiv&lt;/li&gt;&lt;li&gt;\prec&lt;/li&gt;&lt;li&gt;\because, \therefore&lt;/li&gt;&lt;li&gt;{n+1 \choose 2k}&lt;/li&gt;&lt;li&gt;\binom{n+1}{2k}&lt;/li&gt;&lt;li&gt;\land, \lor&lt;/li&gt;&lt;li&gt;\(\angle\)&lt;/li&gt;&lt;li&gt;\lnot&lt;/li&gt;&lt;li&gt;\forall&lt;/li&gt;&lt;li&gt;\exists&lt;/li&gt;&lt;li&gt;\top&lt;/li&gt;&lt;li&gt;\bot&lt;/li&gt;&lt;li&gt;\vdash&lt;/li&gt;&lt;li&gt;\vDash&lt;/li&gt;&lt;li&gt;\star&lt;/li&gt;&lt;li&gt;\ast&lt;/li&gt;&lt;li&gt;\oplus, \bigoplus&lt;/li&gt;&lt;li&gt;\otimes, \bigotimes&lt;/li&gt;&lt;li&gt;\circ&lt;/li&gt;&lt;li&gt;\bullet&lt;/li&gt;&lt;li&gt;\hat x, \widehat {xy}&lt;/li&gt;&lt;li&gt;\bar x&lt;/li&gt;&lt;li&gt;\overline {xyz}, \underline {xyz}&lt;/li&gt;&lt;li&gt;\vec {ab}&lt;/li&gt;&lt;li&gt;\overrightarrow {abcd}&lt;/li&gt;&lt;li&gt;\overbrace, \underbrace accept _ and ^&lt;/li&gt;&lt;li&gt;\dot, \ddot, \dddot&lt;/li&gt;&lt;li&gt;\stackrel{\text{def}}{=}&lt;/li&gt;&lt;/ol&gt;&lt;/td&gt;&lt;td&gt;&lt;br&gt;&lt;ol&gt;&lt;li&gt;\(\infty\)&lt;/li&gt;&lt;li&gt;\(\nabla\)&lt;/li&gt;&lt;li&gt;\(\partial\), \(prime\) \(y^\prime\)&lt;/li&gt;&lt;li&gt;\(\approx\)&lt;/li&gt;&lt;li&gt;\(\sim\)&lt;/li&gt;&lt;li&gt;\(\simeq\)&lt;/li&gt;&lt;li&gt;\(\cong\)&lt;/li&gt;&lt;li&gt;\(\equiv\)&lt;/li&gt;&lt;li&gt;\(\prec\)&lt;/li&gt;&lt;li&gt;\(\because\), \(\therefore\)&lt;/li&gt;&lt;li&gt;\({n+1 \choose 2k}\)&lt;/li&gt;&lt;li&gt;\(\binom{n+1}{2k}\)&lt;/li&gt;&lt;li&gt;\(\land\), \(\lor\)&lt;/li&gt;&lt;li&gt;\(\angle\)&lt;/li&gt;&lt;li&gt;\(\lnot\)&lt;/li&gt;&lt;li&gt;\(\forall\)&lt;/li&gt;&lt;li&gt;\(\exists\)&lt;/li&gt;&lt;li&gt;\(\top\)&lt;/li&gt;&lt;li&gt;\(\bot\)&lt;/li&gt;&lt;li&gt;\(\vdash\)&lt;/li&gt;&lt;li&gt;\(\vDash\)&lt;/li&gt;&lt;li&gt;\(\star\)&lt;/li&gt;&lt;li&gt;\(\ast\)&lt;/li&gt;&lt;li&gt;\(\oplus\), \(\bigoplus\)&lt;/li&gt;&lt;li&gt;\(\otimes\), \(\bigotimes\)&lt;/li&gt;&lt;li&gt;\(\circ\)&lt;/li&gt;&lt;li&gt;\(\bullet\)&lt;/li&gt;&lt;li&gt;\(\hat x\), \(\widehat {xy}\)&lt;/li&gt;&lt;li&gt;\(\bar x\)&lt;/li&gt;&lt;li&gt;\(\overline {xyz}\), \(\underline {xyz}\)&lt;/li&gt;&lt;li&gt;\(\vec {ab}\)&lt;/li&gt;&lt;li&gt;\(\overrightarrow {abcd}\)&lt;/li&gt;&lt;li&gt;\(\overbrace {x+y}\), \(\underbrace {x+y}\)&lt;/li&gt;&lt;li&gt;\(\dot a\), \(\ddot a\), \(\dddot a\)&lt;/li&gt;&lt;li&gt;\(\stackrel{\text{def}}=\)&lt;/li&gt;&lt;/ol&gt;&lt;/td&gt;&lt;/tr&gt;&lt;tr&gt;&lt;td&gt;functions:&lt;br&gt;&lt;ol&gt;&lt;li&gt;\sin x&lt;/li&gt;&lt;li&gt;\cos x&lt;/li&gt;&lt;li&gt;\log x&lt;/li&gt;&lt;li&gt;\sqrt {x^3}&lt;/li&gt;&lt;li&gt;\sqrt[4]{\frac xy}&lt;/li&gt;&lt;li&gt;\operatorname{foo}(x) for non-standard name&lt;/li&gt;&lt;/ol&gt;&lt;/td&gt;&lt;td&gt;&lt;br&gt;&lt;ol&gt;&lt;li&gt;\(\sin x\)&lt;/li&gt;&lt;li&gt;\(\cos x\)&lt;/li&gt;&lt;li&gt;\(\log x\)&lt;/li&gt;&lt;li&gt;\(\sqrt {x^3}\)&lt;/li&gt;&lt;li&gt;\(\sqrt[4]{\frac xy}\)&lt;/li&gt;&lt;li&gt;\(\operatorname{foo}(x)\)&lt;/li&gt;&lt;/ol&gt;&lt;/td&gt;&lt;/tr&gt;&lt;tr&gt;&lt;td&gt;calcs:&lt;br&gt;&lt;ol&gt;&lt;li&gt;\sum&lt;/li&gt;&lt;li&gt;\sum_{\substack{0&amp;lt;i&amp;lt;m \\&amp;nbsp; 0&amp;lt;j&amp;lt;n}}P(i,j)&lt;/li&gt;&lt;li&gt;\int, \(\oint\)&lt;/li&gt;&lt;li&gt;\iint&lt;/li&gt;&lt;li&gt;\iiint&lt;/li&gt;&lt;li&gt;\idotsint&lt;/li&gt;&lt;li&gt;\prod&lt;/li&gt;&lt;li&gt;\lim, &lt;font color=&quot;#ff0000&quot;&gt;\lim\limits_{n \to \infty}&lt;/font&gt;&lt;/li&gt;&lt;li&gt;\varliminf, \varlimsup&lt;/li&gt;&lt;/ol&gt;&lt;/td&gt;&lt;td&gt;&lt;br&gt;&lt;ol&gt;&lt;li&gt;\(\sum_{k=-\infty}^{\infty}X(k\Omega)\)&lt;/li&gt;&lt;li&gt;\(\sum_{\substack{0&amp;lt;i&amp;lt;m \\ 0&amp;lt;j&amp;lt;n}}P(i,j)\)&lt;/li&gt;&lt;li&gt;\(\int_{-T/2}^{T/2}x(t)dt\), \(\oint\)&lt;/li&gt;&lt;li&gt;\(\iint g(x, y)dxdy\)&lt;/li&gt;&lt;li&gt;\(\iiint\)&lt;/li&gt;&lt;li&gt;\(\idotsint\)&lt;/li&gt;&lt;li&gt;\(\prod_{i=1}^{n}i\)&lt;/li&gt;&lt;li&gt;\(\lim\limits_{n \to \infty}\)&lt;/li&gt;&lt;li&gt;\(\varliminf\), \(\varlimsup\)&lt;/li&gt;&lt;/ol&gt;&lt;/td&gt;&lt;/tr&gt;&lt;tr&gt;&lt;td&gt;arrows:&lt;br&gt;&lt;ol&gt;&lt;li&gt;\to&lt;/li&gt;&lt;li&gt;\rightarrow&lt;/li&gt;&lt;li&gt;\lelftarrow&lt;/li&gt;&lt;li&gt;\Rightarrow&lt;/li&gt;&lt;li&gt;\Leftarrow&lt;/li&gt;&lt;li&gt;\leftrightarrow, \iff, \Leftrightarrow&lt;/li&gt;&lt;li&gt;\mapsto&lt;/li&gt;&lt;li&gt;\Uparrow&lt;/li&gt;&lt;li&gt;\uparrow&lt;/li&gt;&lt;li&gt;\Downarrow&lt;/li&gt;&lt;li&gt;\downarrow&lt;/li&gt;&lt;/ol&gt;&lt;/td&gt;&lt;td&gt;&lt;br&gt;&lt;ol&gt;&lt;li&gt;\(\to\)&lt;/li&gt;&lt;li&gt;\(\rightarrow\)&lt;/li&gt;&lt;li&gt;\(\leftarrow\)&lt;/li&gt;&lt;li&gt;\(\Rightarrow\)&lt;/li&gt;&lt;li&gt;\(\Leftarrow\)&lt;/li&gt;&lt;li&gt;\(\leftrightarrow\), \(\iff\), \(\Leftrightarrow\)&lt;/li&gt;&lt;li&gt;\(\mapsto\)&lt;/li&gt;&lt;li&gt;\(\Uparrow\)&lt;/li&gt;&lt;li&gt;\(\uparrow\)&lt;/li&gt;&lt;li&gt;\(\Downarrow\)&lt;/li&gt;&lt;li&gt;\(\downarrow\)&lt;/li&gt;&lt;/ol&gt;&lt;/td&gt;&lt;/tr&gt;&lt;tr&gt;&lt;td&gt;table:&lt;br&gt;&lt;ol&gt;&lt;li&gt;\begin{array}&lt;/li&gt;&lt;li&gt;{c(enter), l(eft), r(ight)}&lt;/li&gt;&lt;li&gt;| for vertical line&lt;/li&gt;&lt;li&gt;\hline, \hdashline for horizontal line&lt;/li&gt;&lt;li&gt;&amp;amp; for element delimiter&lt;/li&gt;&lt;li&gt;\\ for new line&lt;/li&gt;&lt;li&gt;\end{array}&lt;/li&gt;&lt;/ol&gt;&lt;/td&gt;&lt;td&gt;\begin{array}{c|lrr}&lt;br&gt;id &amp;amp; name &amp;amp; s1 &amp;amp; s2\\&lt;br&gt;\hline&lt;br&gt;1 &amp;amp; a &amp;amp; 10 &amp;amp; 20\\&lt;br&gt;\hdashline&lt;br&gt;2 &amp;amp; b &amp;amp; 20 &amp;amp; 30&lt;br&gt;\end{array}&lt;br&gt;&lt;/td&gt;&lt;/tr&gt;&lt;tr&gt;&lt;td&gt;matrix: like table, {array} to {matrix}&lt;br&gt;&lt;ol&gt;&lt;li&gt;{matrix}&lt;/li&gt;&lt;li&gt;{pmatrix} -&amp;gt; ( )&lt;/li&gt;&lt;li&gt;{bmatrix} -&amp;gt; [ ]&lt;/li&gt;&lt;li&gt;{Bmatrix} -&amp;gt; { }&lt;/li&gt;&lt;li&gt;{vmatrix} -&amp;gt; | |&lt;/li&gt;&lt;li&gt;{Vmatrix} -&amp;gt; || ||&lt;/li&gt;&lt;li&gt;\cdots, \ddots, \vdots, \ldots&lt;/li&gt;&lt;li&gt;{smallmatrix}&lt;/li&gt;&lt;/ol&gt;&lt;/td&gt;&lt;td&gt;\begin{pmatrix}&lt;br&gt;1 &amp;amp; a_1 &amp;amp; a_1^2 &amp;amp; \cdots &amp;amp; a_1^n\\&lt;br&gt;1 &amp;amp; a_2 &amp;amp; a_2^2 &amp;amp; \cdots &amp;amp; a_2^n\\&lt;br&gt;\vdots &amp;amp; \vdots &amp;amp; \ddots &amp;amp; \vdots &amp;amp; \vdots\\&lt;br&gt;1 &amp;amp; a_n &amp;amp; a_n^2 &amp;amp; \cdots &amp;amp; a_n^n\\&lt;br&gt;\end{pmatrix}&lt;/td&gt;&lt;/tr&gt;&lt;tr&gt;&lt;td&gt;cases: like table, {array} to {cases}&lt;/td&gt;&lt;td&gt;\(&lt;br&gt;f(n)=\begin{cases}&lt;br&gt;\frac{n}{2}, &amp;amp; \text{if $n$ is even} \\&lt;br&gt;3n+1, &amp;amp; \text{if $n$ is odd}&lt;br&gt;\end{cases}&lt;br&gt;\)&lt;/td&gt;&lt;/tr&gt;&lt;tr&gt;&lt;td&gt;multiline equtions:&lt;br&gt;&lt;ol&gt;&lt;li&gt;\begin{equation|&lt;/li&gt;&lt;li&gt;\begin{split}&lt;/li&gt;&lt;li&gt;\end{split}&lt;/li&gt;&lt;li&gt;\end{equation}&lt;/li&gt;&lt;li&gt;&amp;amp; align position&lt;/li&gt;&lt;/ol&gt;&lt;div&gt;or use:&amp;nbsp;&lt;/div&gt;&lt;div&gt;&lt;ol&gt;&lt;li&gt;\begin{align}&lt;/li&gt;&lt;li&gt;\end{align}&lt;/li&gt;&lt;/ol&gt;&lt;/div&gt;&lt;/td&gt;&lt;td&gt;\(\begin{equation}\begin{split}&lt;br&gt;H(Y|X)&amp;amp;=\sum_{x \in X}p(x)H(Y|X)\\&lt;br&gt;&amp;amp;=-\sum_{x \in X}p(x)\sum_{y \in Y}p(y|x) \log p(y|x)\\&lt;br&gt;&amp;amp;=-\sum_{x \in X}\sum_{y \in Y}p(y, x) \log p(y|x)&lt;br&gt;\end{split}\end{equation}\)&lt;/td&gt;&lt;/tr&gt;&lt;tr&gt;&lt;td&gt;tags and refs&lt;br&gt;&lt;ol&gt;&lt;li&gt;\t`ag{name}&lt;/li&gt;&lt;li&gt;\label{somelabel}, \eqref {somelabel}, \ref {somelabel}&lt;/li&gt;&lt;/ol&gt;&lt;/td&gt;&lt;td&gt;&lt;br&gt;&lt;ol&gt;&lt;li&gt;\(x=y+a \sin x\)&lt;/li&gt;&lt;li&gt;\(x-\sin x=y \eqref{a}\)&lt;/li&gt;&lt;/ol&gt;&lt;/td&gt;&lt;/tr&gt;&lt;tr&gt;&lt;td&gt;styles:&lt;br&gt;&lt;ol&gt;&lt;li&gt;\bbox[yellow]&lt;/li&gt;&lt;li&gt;\bbox[yellow, 5px, border: 2px solid red]&lt;/li&gt;&lt;li&gt;\color{red}x&lt;/li&gt;&lt;/ol&gt;&lt;/td&gt;&lt;td&gt;&lt;br&gt;&lt;ol&gt;&lt;li&gt;\(\bbox[yellow]{x+y}\)&lt;/li&gt;&lt;li&gt;\(\bbox[yellow, 5px, border: 2px solid red]{x+y}\)&lt;/li&gt;&lt;li&gt;\(\color{red}x\)&lt;/li&gt;&lt;/ol&gt;&lt;/td&gt;&lt;/tr&gt;&lt;/tbody&gt;&lt;/table&gt; " style="verticalAlign=top;align=left;overflow=fill;fontSize=12;fontFamily=Helvetica;html=1;rounded=0;labelBackgroundColor=none;fillColor=none;fontStyle=0;arcSize=50;" parent="n3UmtM9tL3a9svDdBCAt-1" vertex="1">
                    <mxGeometry x="70" y="40" width="625" height="3378" as="geometry"/>
                </mxCell>
            </root>
        </mxGraphModel>
    </diagram>
</mxfile>